<?xml version="1.0" encoding="UTF-8" standalone="no"?>
<!DOCTYPE svg PUBLIC "-//W3C//DTD SVG 1.1//EN"
 "http://www.w3.org/Graphics/SVG/1.1/DTD/svg11.dtd">
<!-- Generated by graphviz version 2.40.1 (0)
 -->
<!-- Title: mft Pages: 1 -->
<svg width="615pt" height="283pt"
 viewBox="0.00 0.00 615.00 283.00" xmlns="http://www.w3.org/2000/svg" xmlns:xlink="http://www.w3.org/1999/xlink">
<g id="graph0" class="graph" transform="scale(1 1) rotate(0) translate(4 279)">
<title>mft</title>
<polygon fill="transparent" stroke="transparent" points="-4,4 -4,-279 611,-279 611,4 -4,4"/>
<!-- base_rec -->
<g id="node1" class="node">
<title>base_rec</title>
<polygon fill="#ffffff" stroke="#000000" points="0,-182.5 0,-274.5 178,-274.5 178,-182.5 0,-182.5"/>
<text text-anchor="middle" x="89" y="-259.3" font-family="Times,serif" font-size="14.00" fill="#000000">Base Record</text>
<polyline fill="none" stroke="#000000" points="0,-251.5 178,-251.5 "/>
<text text-anchor="middle" x="61" y="-236.3" font-family="Times,serif" font-size="14.00" fill="#000000">$FILE_NAME</text>
<polyline fill="none" stroke="#000000" points="122,-228.5 122,-251.5 "/>
<text text-anchor="middle" x="150" y="-236.3" font-family="Times,serif" font-size="14.00" fill="#000000">a.txt</text>
<polyline fill="none" stroke="#000000" points="0,-228.5 178,-228.5 "/>
<text text-anchor="middle" x="89" y="-213.3" font-family="Times,serif" font-size="14.00" fill="#000000">Other resident attrs</text>
<polyline fill="none" stroke="#000000" points="0,-205.5 178,-205.5 "/>
<text text-anchor="middle" x="78.5" y="-190.3" font-family="Times,serif" font-size="14.00" fill="#000000">$ATTRIBUTE_LIST</text>
<polyline fill="none" stroke="#000000" points="157,-182.5 157,-205.5 "/>
<text text-anchor="middle" x="167.5" y="-190.3" font-family="Times,serif" font-size="14.00" fill="#000000"> </text>
</g>
<!-- attr_list -->
<g id="node2" class="node">
<title>attr_list</title>
<polygon fill="#ffffff" stroke="#000000" points="214,-136 214,-205 371,-205 371,-136 214,-136"/>
<text text-anchor="middle" x="292.5" y="-189.8" font-family="Times,serif" font-size="14.00" fill="#000000">$ATTRIBUTE_LIST</text>
<polyline fill="none" stroke="#000000" points="214,-182 371,-182 "/>
<text text-anchor="middle" x="265.5" y="-166.8" font-family="Times,serif" font-size="14.00" fill="#000000">Entry 0</text>
<polyline fill="none" stroke="#000000" points="317,-159 317,-182 "/>
<text text-anchor="middle" x="344" y="-166.8" font-family="Times,serif" font-size="14.00" fill="#000000"> </text>
<polyline fill="none" stroke="#000000" points="214,-159 371,-159 "/>
<text text-anchor="middle" x="265.5" y="-143.8" font-family="Times,serif" font-size="14.00" fill="#000000">Entry 1</text>
<polyline fill="none" stroke="#000000" points="317,-136 317,-159 "/>
<text text-anchor="middle" x="344" y="-143.8" font-family="Times,serif" font-size="14.00" fill="#000000"> </text>
</g>
<!-- base_rec&#45;&gt;attr_list -->
<g id="edge1" class="edge">
<title>base_rec:f0&#45;&gt;attr_list:e</title>
<path fill="none" stroke="#000000" d="M178,-193.5C190,-193.5 195.25,-193.5 203.875,-193.5"/>
<polygon fill="#000000" stroke="#000000" points="204,-197.0001 214,-193.5 204,-190.0001 204,-197.0001"/>
</g>
<!-- child_req0 -->
<g id="node3" class="node">
<title>child_req0</title>
<polygon fill="#ffffff" stroke="#000000" points="407,-133.5 407,-225.5 517,-225.5 517,-133.5 407,-133.5"/>
<text text-anchor="middle" x="462" y="-210.3" font-family="Times,serif" font-size="14.00" fill="#000000">Child Record</text>
<polyline fill="none" stroke="#000000" points="407,-202.5 517,-202.5 "/>
<text text-anchor="middle" x="462" y="-187.3" font-family="Times,serif" font-size="14.00" fill="#000000">$DATA</text>
<polyline fill="none" stroke="#000000" points="407,-179.5 517,-179.5 "/>
<text text-anchor="middle" x="462" y="-164.3" font-family="Times,serif" font-size="14.00" fill="#000000"> </text>
<polyline fill="none" stroke="#000000" points="407,-156.5 517,-156.5 "/>
<text text-anchor="middle" x="462" y="-141.3" font-family="Times,serif" font-size="14.00" fill="#000000"> </text>
</g>
<!-- attr_list&#45;&gt;child_req0 -->
<g id="edge2" class="edge">
<title>attr_list:f0&#45;&gt;child_req0:e</title>
<path fill="none" stroke="#000000" d="M371,-170.5C392.1216,-170.5 385.4307,-201.2468 397.4263,-211.3356"/>
<polygon fill="#000000" stroke="#000000" points="396.4068,-214.6848 407,-214.5 398.6036,-208.0385 396.4068,-214.6848"/>
</g>
<!-- child_req1 -->
<g id="node4" class="node">
<title>child_req1</title>
<polygon fill="#ffffff" stroke="#000000" points="407,-22.5 407,-114.5 517,-114.5 517,-22.5 407,-22.5"/>
<text text-anchor="middle" x="462" y="-99.3" font-family="Times,serif" font-size="14.00" fill="#000000">Child Record</text>
<polyline fill="none" stroke="#000000" points="407,-91.5 517,-91.5 "/>
<text text-anchor="middle" x="462" y="-76.3" font-family="Times,serif" font-size="14.00" fill="#000000">$DATA</text>
<polyline fill="none" stroke="#000000" points="407,-68.5 517,-68.5 "/>
<text text-anchor="middle" x="462" y="-53.3" font-family="Times,serif" font-size="14.00" fill="#000000"> </text>
<polyline fill="none" stroke="#000000" points="407,-45.5 517,-45.5 "/>
<text text-anchor="middle" x="462" y="-30.3" font-family="Times,serif" font-size="14.00" fill="#000000"> </text>
</g>
<!-- attr_list&#45;&gt;child_req1 -->
<g id="edge3" class="edge">
<title>attr_list:f1&#45;&gt;child_req1:e</title>
<path fill="none" stroke="#000000" d="M371,-147.5C392.1216,-147.5 385.4307,-116.7532 397.4263,-106.6644"/>
<polygon fill="#000000" stroke="#000000" points="398.6036,-109.9615 407,-103.5 396.4068,-103.3152 398.6036,-109.9615"/>
</g>
<!-- data0 -->
<g id="node5" class="node">
<title>data0</title>
<polygon fill="#ffffff" stroke="#000000" points="553,-173.5 553,-209.5 607,-209.5 607,-173.5 553,-173.5"/>
<text text-anchor="middle" x="580" y="-187.8" font-family="Times,serif" font-size="14.00" fill="#000000">Data</text>
</g>
<!-- child_req0&#45;&gt;data0 -->
<g id="edge4" class="edge">
<title>child_req0:f0&#45;&gt;data0</title>
<path fill="none" stroke="#000000" d="M517,-167.5C525.8331,-167.5 534.9333,-169.5858 543.3755,-172.5275"/>
<polygon fill="#000000" stroke="#000000" points="542.3417,-175.8823 552.9283,-176.3004 544.9131,-169.3716 542.3417,-175.8823"/>
</g>
<!-- data1 -->
<g id="node6" class="node">
<title>data1</title>
<polygon fill="#ffffff" stroke="#000000" points="553,-118.5 553,-154.5 607,-154.5 607,-118.5 553,-118.5"/>
<text text-anchor="middle" x="580" y="-132.8" font-family="Times,serif" font-size="14.00" fill="#000000">Data</text>
</g>
<!-- child_req0&#45;&gt;data1 -->
<g id="edge5" class="edge">
<title>child_req0:f1&#45;&gt;data1</title>
<path fill="none" stroke="#000000" d="M517,-144.5C525.387,-144.5 534.3524,-143.7936 542.8119,-142.8007"/>
<polygon fill="#000000" stroke="#000000" points="543.3535,-146.2596 552.8068,-141.4755 542.4335,-139.3203 543.3535,-146.2596"/>
</g>
<!-- data2 -->
<g id="node7" class="node">
<title>data2</title>
<polygon fill="#ffffff" stroke="#000000" points="553,-55.5 553,-91.5 607,-91.5 607,-55.5 553,-55.5"/>
<text text-anchor="middle" x="580" y="-69.8" font-family="Times,serif" font-size="14.00" fill="#000000">Data</text>
</g>
<!-- child_req1&#45;&gt;data2 -->
<g id="edge6" class="edge">
<title>child_req1:f0&#45;&gt;data2</title>
<path fill="none" stroke="#000000" d="M517,-56.5C525.6311,-56.5 534.7047,-58.0057 543.193,-60.1209"/>
<polygon fill="#000000" stroke="#000000" points="542.253,-63.4922 552.8272,-62.8302 544.1481,-56.7536 542.253,-63.4922"/>
</g>
<!-- data3 -->
<g id="node8" class="node">
<title>data3</title>
<polygon fill="#ffffff" stroke="#000000" points="553,-.5 553,-36.5 607,-36.5 607,-.5 553,-.5"/>
<text text-anchor="middle" x="580" y="-14.8" font-family="Times,serif" font-size="14.00" fill="#000000">Data</text>
</g>
<!-- child_req1&#45;&gt;data3 -->
<g id="edge7" class="edge">
<title>child_req1:f1&#45;&gt;data3</title>
<path fill="none" stroke="#000000" d="M517,-33.5C525.4728,-33.5 534.4166,-32.2002 542.8198,-30.3658"/>
<polygon fill="#000000" stroke="#000000" points="543.8663,-33.7125 552.7339,-27.9146 542.1861,-26.9172 543.8663,-33.7125"/>
</g>
</g>
</svg>
